# xmcd
#
# Track frame offsets:
#	150
#	11680
#	22489
#	35051
#	49531
#
# Disc length: 901 seconds
#
# Revision: 0
# Processed by: cddbd v1.5.2PL0 Copyright (c) Steve Scherf et al.
# Submitted via: dBpowerAMP V4.0
#
DISCID=3e038305
DTITLE=Best Friends Forever - Summer 2007 Tour EP
DYEAR=2007
DGENRE=Indie Pop
TTITLE0=Eisenhower is the Father
TTITLE1=Handpocket
TTITLE2=Abe Lincoln
TTITLE3=I Want To Plug You In
TTITLE4=The BFF Theme Song
EXTD=ripped by ccr
EXTT0=
EXTT1=
EXTT2=
EXTT3=
EXTT4=
PLAYORDER=
